<?xml version="1.0" standalone="no"?>
<!DOCTYPE svg PUBLIC "-//W3C//DTD SVG 20010904//EN"
 "http://www.w3.org/TR/2001/REC-SVG-20010904/DTD/svg10.dtd">
<svg version="1.0" xmlns="http://www.w3.org/2000/svg"
 width="500.000000pt" height="500.000000pt" viewBox="0 0 500.000000 500.000000"
 preserveAspectRatio="xMidYMid meet">
<metadata>
Created by potrace 1.14, written by Peter Selinger 2001-2017
</metadata>
<g transform="translate(0.000000,500.000000) scale(0.100000,-0.100000)"
fill="#000000" stroke="none">
<path d="M2357 4944 c-1 -1 -33 -5 -72 -8 -206 -19 -357 -50 -550 -114 -502
-165 -932 -480 -1244 -909 -185 -257 -337 -600 -406 -918 -27 -125 -30 -142
-45 -265 -14 -118 -5 -508 15 -630 123 -773 577 -1421 1261 -1802 221 -123
589 -248 804 -273 30 -3 84 -10 120 -15 98 -13 451 -10 570 5 534 67 1027 305
1416 682 333 324 572 739 679 1183 37 154 46 214 64 410 8 92 6 343 -3 412 -3
24 -8 66 -11 93 -43 387 -226 832 -476 1161 -98 129 -113 146 -224 259 -283
286 -624 492 -1022 618 -179 57 -321 85 -518 103 -67 6 -353 12 -358 8z"/>
</g>
</svg>
